<svg xmlns="http://www.w3.org/2000/svg" enable-background="new 0 0 60 60" viewBox="0 0 60 60" id="netflix"><g><path fill="#FFF" d="M50,60H10C4.477,60,0,55.523,0,50V10C0,4.477,4.477,0,10,0h40c5.523,0,10,4.477,10,10v40
		C60,55.523,55.523,60,50,60z"></path></g><g><g><path fill="#EB2060" d="M23.455 53.318c-.829 0-1.5-.672-1.5-1.5V27.681c0-.828.671-1.5 1.5-1.5s1.5.672 1.5 1.5v24.138C24.955 52.646 24.283 53.318 23.455 53.318zM36.546 33.989c-.828 0-1.5-.672-1.5-1.5V6c0-.828.672-1.5 1.5-1.5s1.5.672 1.5 1.5v26.489C38.046 33.317 37.374 33.989 36.546 33.989z"></path><polygon fill="#FFF" points="34.872 51.143 13.733 6.75 25.153 6.75 46.188 53.028"></polygon><polygon fill="#FFBDCC" points="38.872 54.143 17.733 9.75 29.153 9.75 50.188 56.028"></polygon><path fill="#EB2060" d="M12.545 55.5c-.344 0-.681-.118-.951-.34-.347-.285-.549-.711-.549-1.16V6.75c0-.828.671-1.5 1.5-1.5s1.5.672 1.5 1.5v45.42l9.115-1.822c.814-.17 1.602.365 1.765 1.177.163.812-.364 1.603-1.177 1.765l-10.909 2.182C12.742 55.49 12.644 55.5 12.545 55.5zM47.454 54.734c-.828 0-1.5-.672-1.5-1.5V7.5h-9.408c-.828 0-1.5-.672-1.5-1.5s.672-1.5 1.5-1.5h10.908c.828 0 1.5.672 1.5 1.5v47.234C48.954 54.062 48.282 54.734 47.454 54.734z"></path><path fill="#EB2060" d="M47.454,54.75c-0.041,0-0.082-0.003-0.123-0.01L34.24,52.559c-0.242-0.041-0.449-0.196-0.554-0.418
			L11.868,6.322c-0.11-0.232-0.094-0.505,0.043-0.723c0.138-0.218,0.377-0.35,0.634-0.35h13.091c0.294,0,0.561,0.172,0.683,0.439
			l21.818,48c0.115,0.253,0.081,0.548-0.088,0.768C47.905,54.644,47.685,54.75,47.454,54.75z M34.872,51.143l11.316,1.886
			L25.153,6.75h-11.42L34.872,51.143z"></path></g><polygon fill="#EB2060" points="38.046 31.628 38.046 21.766 35.046 21.766 35.046 26.422"></polygon></g></svg>